<svg xmlns="http://www.w3.org/2000/svg" width="500" height="500"><circle fill="#FFF" stroke="#414042" stroke-width="33" stroke-miterlimit="10" cx="251.666" cy="251.668" r="176.101"/><path fill="#68717A" d="M336.267 322.951c-47.854 47.167-124.873 46.654-172.094-1.148a36.28 36.28 0 0115.909-19.043 78.042 78.042 0 0116.061-9.151c-8.663-29.767 14.885-44.4 23.894-48.613 0 13.743 12.868 4.623 28.837 4.796 13.147.147 39.146 13.381 39.146-4.079 14.465 4.28 30.228 31.843 19.379 48.78a69.3 69.3 0 0112.536 7.888 40.168 40.168 0 0116.332 20.573v-.003z"/><path fill="#F9DCA4" d="M223.73 266.876l58.8.356v13.544l-.028.208a10.777 10.777 0 01-.276 1.822l-.196 1.344-.116.28c-3.809 19.997-20.467 27.724-30.753 33.109-10.838-5.904-26.162-16.542-27.379-35.36l-.051-.232v-.789a44.55 44.55 0 01-.016-.814c0 .142.011.275.016.417v-13.885z"/><path opacity=".11" fill="#010101" d="M282.533 266.628v15.785a27.898 27.898 0 01-.374 4.366 23.792 23.792 0 01-1.495 5.206c-20.432 15.429-52.985 2.775-58.184-23.578l60.053-1.779z"/><path fill="#F9DCA4" d="M200.367 213.889c-19.468 5.005-2.916 28.73 9.329 28.628a78.079 78.079 0 01-9.329-28.628zm101.416 0c19.469 5.005 2.916 28.73-9.334 28.625a78.016 78.016 0 009.334-28.625z"/><path fill="#FFE8BF" d="M250.14 159.211c80.881 0 49.36 127.872 0 127.872-46.624 0-80.884-127.872 0-127.872z"/><path fill="#8B5D43" d="M211.966 201.553a6.85 6.85 0 01-1.631 10.546c-5.716 4.702-5.924 21.097-5.924 21.097-2.208-2.192-2.156-13.929-6.941-20.711-4.784-6.782-8.008-54.241 18.749-71.499a16.81 16.81 0 00-3.678 14.188s18.587-26.653 49.422-25.885a19.826 19.826 0 00-9.803 12.847s26.956-11.121 49.421 2.108a53.553 53.553 0 00-16.336 7.673c10.91.3 21.451 2.326 29.401 9.396-7.073 2.271-10.963 9.842-8.693 16.915.038.116.075.232.116.347 3.375 13.806 3.69 26.649.424 33.555-3.269 6.904-4.81 2.447-6.855 16.927a6.34 6.34 0 01-3.034 4.784c-.08 1.048 1.505-14.802-2.582-19.023-4.08-4.218-1.519-9.399.115-12.466 11.39-21.388-22.72-31.079-41.365-31.056-16.171.022-55.175 7.372-40.806 30.257z"/><path fill="#444A56" d="M207.011 308.186c.119.15 41.059 53.139 89.187-.787-5.813 15.968-30.887 28.651-45.228 28.612-27.39-.079-42.547-22.071-43.959-27.825z"/><path fill="#E6E6E5" d="M272.22 356.114c-1.612.284-3.239.532-4.875.756v-35.221a2.27 2.27 0 012.436-2.033 2.268 2.268 0 012.439 2.033v34.465zm-38.701.655a131.586 131.586 0 01-4.875-.789v-34.33a2.27 2.27 0 012.436-2.033 2.269 2.269 0 012.443 2.033l-.004 35.119z"/></svg>